{"title":"Jack Reacher 2012 1080p x264 ACC - alrmothe","uid":8393132,"size":7206809076,"categoryP":"video","categoryS":"hd___movies","magnet":"?xt=urn:btih:3c050f0a4c2f29fb4c36aedf501a81d3e1020124&amp;dn=Jack+Reacher+2012+1080p+x264+ACC+-+alrmothe&amp;tr=udp%3A%2F%2Ftracker.openbittorrent.com%3A80&amp;tr=udp%3A%2F%2Fopen.demonii.com%3A1337&amp;tr=udp%3A%2F%2Ftracker.coppersurfer.tk%3A6969&amp;tr=udp%3A%2F%2Fexodus.desync.com%3A6969","seeders":5,"leechers":0,"uploader":".alrmothe","files":27,"time":1366488706,"description":"***************************************************************\n\nJack Reacher 2012 1080p x264 ACC - alrmothe\n\n***************************************************************\n\nTitle : Jack Reacher\nYEAR: 2012\nGENRE : Action | Crime | Thriller       \nimdb URL :http://www.imdb.com/title/tt0790724/\nFormat: MP4\nOverall bit rate: 7326 kbps\nFormat version: Version 4 / Version 2\nFile size: 6.76 GiB\nDuration:  2h 10mn\nSub:Arabic,English,Dutch,Swedish,Norwegian\nbrazillian-portuguese,French,Danish\n***************************************************************\n\nVideo\nFormat : AVC \nFormat/Info : Advanced Video Codec \nFormat profile : &lt;a class=&quot;__cf_email__&quot; href=&quot;/cdn-cgi/l/email-protection&quot; data-cfemail=&quot;fab2939d92bab6ced4ca&quot;&gt;[email&amp;#160;protected]&lt;/a&gt;&lt;script cf-hash='f9e31' type=&quot;text/javascript&quot;&gt;\n/* &lt;![CDATA[ */!function(){try{var t=&quot;currentScript&quot;in document?document.currentScript:function(){for(var t=document.getElementsByTagName(&quot;script&quot;),e=t.length;e--;)if(t[e].getAttribute(&quot;cf-hash&quot;))return t[e]}();if(t&amp;&amp;t.previousSibling){var e,r,n,i,c=t.previousSibling,a=c.getAttribute(&quot;data-cfemail&quot;);if(a){for(e=&quot;&quot;,r=parseInt(a.substr(0,2),16),n=2;a.length-n;n+=2)i=parseInt(a.substr(n,2),16)^r,e+=String.fromCharCode(i);e=document.createTextNode(e),c.parentNode.replaceChild(e,c)}}}catch(u){}}();/* ]]&gt; */&lt;/script&gt; \nFormat settings, CABAC : Yes \nFormat settings, ReFrames : 4 frames  \nCodec ID : V_MPEG4/ISO/AVC  \nBit rate : 6875 kbps \nWidth : 1920 pixels \nHeight : 816 pixels \nDisplay aspect ratio : 16:9 \nFrame rate : 23.976 fps \nColor space : YUV \nChroma subsampling : 4:2:0 \nBit depth : 8 bits \nScan type : Progressive \nBits/(Pixel*Frame) : 0.183 \nStream size: 6.26 GiB \n\n\nAudio#1 \nFormat: ACC\nBit rate :448 Kbps\nChannel(s) : 6 channels\nChannel positions:Front: L C R, Side: L R, LFE\nSampling rate: 48.0 KHz\nBit depth: 24 bits\nCompression mode: Lossy\nStream size: 348 GiB\nLanguage : English\n\n***************************************************************\n\nsample: yes\n\n\nSource &lt;a href=&quot;\nhttp://img20.imageshack.us/img20/4481/shot0002f.png&quot; rel=&quot;nofollow&quot; target=&quot;_NEW&quot;&gt;\nhttp://img20.imageshack.us/img20/4481/shot0002f.png&lt;/a&gt;\n\n\nAfter Encoded  &lt;a href=&quot;\nhttp://img542.imageshack.us/img542/9412/vlcsnap2013042020h08m59.png&quot; rel=&quot;nofollow&quot; target=&quot;_NEW&quot;&gt;\nhttp://img542.imageshack.us/img542/9412/vlcsnap2013042020h08m59.png&lt;/a&gt;\n\n\nScreenshots &lt;a href=&quot;\nhttp://img547.imageshack.us/img547/15/vlcsnap2013042019h11m43.png&quot; rel=&quot;nofollow&quot; target=&quot;_NEW&quot;&gt;\nhttp://img547.imageshack.us/img547/15/vlcsnap2013042019h11m43.png&lt;/a&gt; &lt;a href=&quot;\nhttp://img194.imageshack.us/img194/6985/vlcsnap2013042019h13m40.png&quot; rel=&quot;nofollow&quot; target=&quot;_NEW&quot;&gt;\nhttp://img194.imageshack.us/img194/6985/vlcsnap2013042019h13m40.png&lt;/a&gt; &lt;a href=&quot;\nhttp://img51.imageshack.us/img51/1538/vlcsnap2013042019h15m05.png&quot; rel=&quot;nofollow&quot; target=&quot;_NEW&quot;&gt;\nhttp://img51.imageshack.us/img51/1538/vlcsnap2013042019h15m05.png&lt;/a&gt; &lt;a href=&quot;\nhttp://img248.imageshack.us/img248/1387/vlcsnap2013042019h15m33.png&quot; rel=&quot;nofollow&quot; target=&quot;_NEW&quot;&gt;\nhttp://img248.imageshack.us/img248/1387/vlcsnap2013042019h15m33.png&lt;/a&gt; &lt;a href=&quot;\nhttp://img15.imageshack.us/img15/128/vlcsnap2013042019h16m26.png&quot; rel=&quot;nofollow&quot; target=&quot;_NEW&quot;&gt;\nhttp://img15.imageshack.us/img15/128/vlcsnap2013042019h16m26.png&lt;/a&gt;\n","torrent":{"xt":"urn:btih:3c050f0a4c2f29fb4c36aedf501a81d3e1020124","amp;dn":"Jack+Reacher+2012+1080p+x264+ACC+-+alrmothe","amp;tr":["udp%3A%2F%2Ftracker.openbittorrent.com%3A80","udp%3A%2F%2Fopen.demonii.com%3A1337","udp%3A%2F%2Ftracker.coppersurfer.tk%3A6969","udp%3A%2F%2Fexodus.desync.com%3A6969"],"infoHash":"3c050f0a4c2f29fb4c36aedf501a81d3e1020124","infoHashBuffer":{"type":"Buffer","data":[60,5,15,10,76,47,41,251,76,54,174,223,80,26,129,211,225,2,1,36]},"announce":[],"urlList":[]}}